<svg id="Capa_1" data-name="Capa 1" xmlns="http://www.w3.org/2000/svg" viewBox="0 0 376 111"><defs><style>.cls-1{fill:#fefefe;}.cls-2{fill:#1767a8;}.cls-3{fill:#1d1d1c;}</style></defs><path class="cls-1" d="M22,122V11H398V122ZM348,80.28H76.65v20.5H348ZM219.16,34.86c-1.52,0-3,0-4.46,0a.88.88,0,0,0-.95.56c-1.43,2.8-2.9,5.57-4.36,8.35-1.74,3.3-3.47,6.6-5.22,9.9l-4.53,8.55c-.27.51-.53,1-.83,1.6-.12-.19-.19-.3-.25-.42-1-1.91-2-3.83-3-5.74-1.71-3.29-3.44-6.57-5.16-9.85-2.13-4-4.28-8.09-6.38-12.16a1.24,1.24,0,0,0-1.34-.8c-1.42.06-2.84,0-4.25,0V73.07h5.69V49l.18-.06L197,73.09h3.63l12.64-24.15.17.05V73.07h5.73ZM296.67,57A12.88,12.88,0,0,1,294,63.48c-2.38,3.1-5.76,4.34-9.51,4.7a11.63,11.63,0,0,1-2.33-.22,13,13,0,0,1-10.59-7.68,14.58,14.58,0,0,1-1.2-8.32,13.71,13.71,0,0,1,6.15-10.13c2.89-2,6.15-2.29,9.56-1.85a11.54,11.54,0,0,1,8.37,4.79c.56.78,1,1.6,1.58,2.42l5.24-1.84a14.28,14.28,0,0,0-5.36-7.43c-4.42-3.31-9.53-4.28-14.93-3.67a17.23,17.23,0,0,0-10.12,4.61,19.71,19.71,0,0,0-6.61,16.35,18.33,18.33,0,0,0,2.35,8.5,27.34,27.34,0,0,0,3.55,4.68,17.26,17.26,0,0,0,8.13,4.78,18.68,18.68,0,0,0,12.32-.49,17.82,17.82,0,0,0,7-4.83A19.51,19.51,0,0,0,302.2,58a22.73,22.73,0,0,0,.15-6.59H282V57ZM345,34.86v38.2h5.92V45.83l.21-.15a1.13,1.13,0,0,0,.14.36c.66.84,1.33,1.68,2,2.5l8.29,10.1,3.9,4.79c1.43,1.74,2.85,3.49,4.29,5.22,1,1.25,2.14,2.45,3.13,3.73a1.66,1.66,0,0,0,1.55.74c1.33-.06,2.66,0,4,0V34.9h-5.93V62.51l-.15.11c-.1-.14-.18-.28-.28-.41l-3.49-4.35-4.11-5.12-4.09-5.06L356.61,43c-2.1-2.58-4.2-5.17-6.31-7.74a.86.86,0,0,0-.56-.35C348.18,34.85,346.62,34.86,345,34.86ZM88.66,57.78c1.47,0,2.86,0,4.24,0a2,2,0,0,1,1.86.83c1.28,1.64,2.7,3.16,4.07,4.73q2.37,2.73,4.76,5.44c1.16,1.32,2.35,2.61,3.49,3.94a.94.94,0,0,0,.8.41h6.2a6.26,6.26,0,0,0,.63-.08c-.28-.32-.48-.54-.67-.77l-3.9-4.44-5.28-6c-1-1.1-2-2.19-2.93-3.29a9.48,9.48,0,0,1-.58-.84c.63-.07,1.16-.11,1.68-.2,3.67-.59,6.73-2.15,8.61-5.54a11.83,11.83,0,0,0,1.1-8.23,10.33,10.33,0,0,0-5.07-7.09,12.64,12.64,0,0,0-6.59-1.77c-6-.06-12,0-18,0a1.06,1.06,0,0,0-.28.06V73.05h5.85ZM136.31,74a22.4,22.4,0,0,0,7.34-1.14,18.68,18.68,0,0,0,8.37-5.9,26.35,26.35,0,0,0,2.65-4.13A19.72,19.72,0,0,0,156.41,51a19.58,19.58,0,0,0-7.65-13.15A17.49,17.49,0,0,0,138,34.11c-5.07-.13-9.66,1.18-13.5,4.75A20.32,20.32,0,0,0,119.32,46a21.24,21.24,0,0,0-1.46,9.85,18.55,18.55,0,0,0,2.71,8.61,25.14,25.14,0,0,0,3,3.83,18.34,18.34,0,0,0,8.19,4.88A29.08,29.08,0,0,0,136.31,74ZM315.6,67.56v-11h20V51.17h-20V40.37h21.61V34.9H309.66V73.07H337.3V67.56ZM52.09,73.08V59.63c3.72,0,7.36,0,11,0a13.6,13.6,0,0,0,7.27-1.8,11.53,11.53,0,0,0,4.54-4.54,13.72,13.72,0,0,0,1.3-7.86,11.42,11.42,0,0,0-3.89-7.5,12.75,12.75,0,0,0-8.57-3c-5.72-.08-11.43,0-17.15,0a2.7,2.7,0,0,0-.41.06V73.08Zm210.1,0c-.06-.19-.09-.34-.14-.47q-3.21-7.48-6.41-15L251.49,48c-1.83-4.24-3.65-8.48-5.5-12.72a.81.81,0,0,0-.62-.37c-1.49,0-3,0-4.48,0a.72.72,0,0,0-.82.53c-.43,1.09-.91,2.16-1.37,3.24l-4.26,10q-2.16,5.05-4.33,10.09-2.66,6.16-5.3,12.31c-.29.68-.6,1.35-.92,2.08h6.43c1.17-2.83,2.33-5.65,3.51-8.46a.84.84,0,0,1,.61-.41q8.64,0,17.27,0a.82.82,0,0,1,.59.42c.38.79.7,1.6,1,2.41.84,2,1.67,4,2.49,6Zm-98.5-38.19V73.06h5.85V34.88Z" transform="translate(-22 -11)"/><path class="cls-2" d="M348,80.28v20.5H76.65V80.28ZM302,85.47v9c.58,0,1.12.1,1.67.09a7.55,7.55,0,0,0,1.5-.14,2.37,2.37,0,0,0,2.06-1.6c.45-1.56,0-2.39-1.59-3.21l.33-.22a2.12,2.12,0,0,0,1-2.24,2,2,0,0,0-1.61-1.7A7.24,7.24,0,0,0,302,85.47Zm-154.4,8a3.28,3.28,0,0,0,4.62.35,3.76,3.76,0,0,0,.25-4.92,3.93,3.93,0,0,0-1.93-1.11c-1.17-.25-2.09.47-3,1.32L147.52,88H147v9l.67,0Zm-38.57-8.63v4c-2.06-1.68-3.25-1.26-4.63.1a3.7,3.7,0,0,0,0,4.82,2.85,2.85,0,0,0,2,.87,3,3,0,0,0,2.68-1.31l.06,1.1h.55V84.83Zm180.5,9.6v-9.6h-.66v4c-2.16-1.73-3.38-1.22-4.7.13a3.68,3.68,0,0,0,.11,4.82,3.11,3.11,0,0,0,4.56-.36C289.18,93.75,288.61,94.56,289.57,94.43ZM86.21,90.79a20.4,20.4,0,0,0,2.88-.36,2.5,2.5,0,0,0,1.83-2.78,2.37,2.37,0,0,0-2.23-2.28c-.86-.1-1.75,0-2.62,0-.44,0-.54.2-.54.61,0,2.69,0,5.39,0,8.09a2.53,2.53,0,0,0,.06.41l.61-.06V90.79Zm110.71.39c.45-2-1.76-4.29-3.92-3.12a3.6,3.6,0,0,0-1.92,3.59,2.82,2.82,0,0,0,2.36,2.84,10.94,10.94,0,0,0,2.73-.15c.51-.06.4-.36.19-.67-2.7,1-4.67,0-4.53-2.49Zm130.43,0c.48-2-1.75-4.31-3.92-3.11a3.57,3.57,0,0,0-1.91,3.52,2.8,2.8,0,0,0,2.31,2.88,10.86,10.86,0,0,0,2.78-.14c.51,0,.41-.36.19-.66-2.66.94-4.67,0-4.53-2.49h5.08Zm-30.24,0c.44-2-1.68-4.28-3.87-3.15a3.51,3.51,0,0,0-1.95,3.62,2.74,2.74,0,0,0,2.3,2.81,11.44,11.44,0,0,0,2.79-.14c.46,0,.43-.34.19-.64-2.91,1-4.67-.16-4.55-2.5Zm17.33,0c.49-2-1.74-4.24-3.84-3.14a3.57,3.57,0,0,0-2,3.6A2.82,2.82,0,0,0,311,94.49a11.44,11.44,0,0,0,2.73-.15c.49,0,.47-.33.21-.66-2.88,1-4.65-.16-4.54-2.51Zm-40.67,0a3,3,0,0,0-1.07-2.83,2.51,2.51,0,0,0-2.9-.29,3.5,3.5,0,0,0-1.91,3.46c.1,1.57.86,2.7,2.25,2.93a11,11,0,0,0,2.86-.13c.5-.06.41-.37.16-.67-2.54,1-4.65.06-4.52-2.47Zm-98.46-5.82v9h5l.11-.16c-.14-.12-.29-.33-.44-.34-.68,0-1.36,0-2,0H176v-4h3.83c.16-.46,0-.59-.41-.59-1.13,0-2.26,0-3.41,0V85.9h3.66c.41,0,.57-.12.4-.54Zm80.37,9.23a3.26,3.26,0,0,0,3.39-3.53,3.22,3.22,0,0,0-3.33-3.3,3.32,3.32,0,0,0-3.32,3.49A3.13,3.13,0,0,0,255.68,94.6Zm-39.46-4.24a5.21,5.21,0,0,0-.83.06,13.63,13.63,0,0,0-2.55.75,1.78,1.78,0,0,0-.79,2.18,1.83,1.83,0,0,0,1.75,1.25,3.11,3.11,0,0,0,2.46-1l.17.81.48,0V90.15a2.37,2.37,0,0,0-2.72-2.39,8.44,8.44,0,0,0-1.79.65l.28.5C214.82,87.93,216.15,88.46,216.22,90.36Zm-113.75.75a3.19,3.19,0,0,0-3.26-3.35,3.36,3.36,0,0,0-3.36,3.46,3.14,3.14,0,0,0,3.22,3.38A3.21,3.21,0,0,0,102.47,91.11Zm145.45,3.31V92.9c0-.94,0-1.89,0-2.83a2.35,2.35,0,0,0-2.71-2.31,9.26,9.26,0,0,0-1.79.65l.28.5c2.13-1,3.64-.36,3.49,1.45a5,5,0,0,0-.77.06,14.4,14.4,0,0,0-2.55.74,1.79,1.79,0,0,0-.8,2.17,1.81,1.81,0,0,0,1.73,1.27,3,3,0,0,0,2.46-1l.2.79ZM136.76,91.1a3.17,3.17,0,0,0-3.27-3.33,3.34,3.34,0,0,0-3.35,3.46,3.13,3.13,0,0,0,3.23,3.37A3.21,3.21,0,0,0,136.76,91.1Zm32.5-.75a5.63,5.63,0,0,0-.76.07,14.06,14.06,0,0,0-2.51.67,1.87,1.87,0,0,0,.94,3.52,3.2,3.2,0,0,0,2.39-1l.16.81.49,0V90.29a2.38,2.38,0,0,0-2.72-2.53,8.44,8.44,0,0,0-1.79.65l.28.5C167.86,87.93,169.25,88.49,169.26,90.35Zm-10.65,0a4.46,4.46,0,0,0-.77.06,14.16,14.16,0,0,0-2.52.67,1.84,1.84,0,0,0-.89,2.26,1.87,1.87,0,0,0,1.82,1.26,3.1,3.1,0,0,0,2.39-1l.18.84.47,0c0-1.41,0-2.77,0-4.13a2.39,2.39,0,0,0-1.46-2.35c-1.09-.52-1.91,0-2.8.43-.08,0,0,.34-.07.59C157.18,87.92,158.52,88.47,158.61,90.36ZM339.2,94.42c0-1.39,0-2.7,0-4a2.47,2.47,0,0,0-1.69-2.59,3.1,3.1,0,0,0-2.53.51c-.11.06-.11.34-.2.63,2.49-1,3.89-.38,3.66,1.41a3.25,3.25,0,0,0-.7,0,16.41,16.41,0,0,0-2.62.75,1.74,1.74,0,0,0-.8,2,1.61,1.61,0,0,0,1.38,1.33,2.85,2.85,0,0,0,2.47-.6l.41-.32.12.79ZM236.42,94a4.54,4.54,0,0,0,3.43.5,2.42,2.42,0,0,0,1.88-3.16c-.26-1-1.08-1.38-1.92-1.73-.54-.23-1.11-.42-1.63-.69a1.66,1.66,0,0,1,.42-3,3.3,3.3,0,0,1,2.37.25.8.8,0,0,0,.22,0l.21-.51a4.21,4.21,0,0,0-3-.32,2.21,2.21,0,0,0-1.71,2.4c0,1.18.85,1.66,1.76,2.07.58.26,1.2.43,1.76.72a1.62,1.62,0,0,1,.91,1.75,1.75,1.75,0,0,1-1.37,1.65,3.77,3.77,0,0,1-2.86-.41l-.25-.09ZM260.77,88v6.41l.61,0a.67.67,0,0,0,.06-.16c0-1.21,0-2.42,0-3.62a2.16,2.16,0,0,1,2.17-2.18,1.9,1.9,0,0,1,2,2.08c0,.57,0,1.14,0,1.71v2.17h.67c0-1.33,0-2.65,0-4a3.57,3.57,0,0,0-.35-1.39,2.3,2.3,0,0,0-3-1.06,14,14,0,0,0-1.51.94l-.08-.91ZM112.08,88c0,1.54-.08,3,0,4.55a2.11,2.11,0,0,0,2.5,2,3.11,3.11,0,0,0,2.2-1.26l.07,1.11.55-.06V88l-.64,0c0,1.15,0,2.25,0,3.34a5.3,5.3,0,0,1-.33,1.52,2.2,2.2,0,0,1-2.09,1.1,1.53,1.53,0,0,1-1.51-1.39,6.81,6.81,0,0,1-.16-1.43c0-1,0-2.09,0-3.15Zm114.48,0c.05.14.1.29.16.43.77,1.76,1.55,3.52,2.29,5.3a1.38,1.38,0,0,1,0,1,3.62,3.62,0,0,1-2.22,2.07l.25.54a3.8,3.8,0,0,0,2.4-2.1c.72-1.47,1.35-3,2-4.49.4-.9.78-1.8,1.18-2.71-.49-.18-.78-.08-.93.42a8,8,0,0,1-.4,1c-.55,1.33-1.11,2.65-1.65,3.93-.71-1.61-1.45-3.25-2.15-4.9C227.29,88.05,227.05,87.89,226.56,88.08Zm106.11.52c-.14.18-.18.25-.24.31l-3.93,4.76a4,4,0,0,0-.39.75h5.47c.11-.39,0-.55-.4-.54-.83,0-1.67,0-2.5,0h-1.53c.47-.63.81-1.13,1.2-1.6,1-1.16,2-2.3,2.93-3.47a4.5,4.5,0,0,0,.42-.78h-5.18v.56h4.15ZM210.92,94.13c-.18-.49-.18-.49-.67-.33-1.79.59-3.18.06-3.85-1.45a2.68,2.68,0,0,1,2.44-3.87,14.49,14.49,0,0,1,2,.25l.16-.4a3.56,3.56,0,0,0-4.68.67,3.49,3.49,0,0,0-.16,4.39C207.07,94.71,209.15,95,210.92,94.13Zm-20.68-.23c-.37.06-.5.09-.63.1-.91.11-1.31-.23-1.35-1.15,0-.5,0-1,0-1.52v-2.8h2c0-.16,0-.35,0-.35-.64-.1-1.29-.18-2-.27V86.06c-.53,0-.76.19-.71.71a9.77,9.77,0,0,1,0,1.21c-1.1.06-1.1.06-1.08.54l1.08.06v.88c0,1.23,0,2.46.07,3.68a1.57,1.57,0,0,0,2.24,1.39C190,94.48,190.05,94.21,190.24,93.9ZM126.6,88.55v.86c0,1.19,0,2.37.05,3.56a1.59,1.59,0,0,0,2.16,1.6c.42-.09.51-.27.26-.62-1.45.19-1.74-.07-1.75-1.51V88.55c.6,0,1.08,0,1.56,0,.15,0,.28-.17.42-.26-.14-.09-.28-.24-.43-.25-.49,0-1,0-1.56,0V86c-1.28.33-.38,1.38-.84,2a3.49,3.49,0,0,0-.64,0c-.14,0-.25.15-.38.24.14.09.26.24.4.28A4.48,4.48,0,0,0,126.6,88.55Zm-2-.22a3.56,3.56,0,0,0-4.72,5.23,3.91,3.91,0,0,0,4.66.54c0-.52-.32-.43-.68-.31-1.77.61-3.19.06-3.84-1.44a2.67,2.67,0,0,1,2.44-3.87,8.71,8.71,0,0,1,1.73.3l.21,0Zm17.17,0a2.21,2.21,0,0,0-2.6-.25,1.79,1.79,0,0,0-1,1.5,1.48,1.48,0,0,0,.94,1.45c.44.23.93.37,1.39.58a1.23,1.23,0,0,1,.84,1.15A1.33,1.33,0,0,1,139.75,94a11,11,0,0,1-1.56-.38l-.21.47a3.26,3.26,0,0,0,2.24.45A1.88,1.88,0,0,0,142,93.09,1.75,1.75,0,0,0,140.81,91c-.42-.18-.86-.33-1.28-.52a1,1,0,0,1-.67-1.09,1,1,0,0,1,1-.91,8.17,8.17,0,0,1,1.52.25l.21,0Zm43.5,0a7.74,7.74,0,0,1-.75-.31,2.14,2.14,0,0,0-2.71.93c-.46.94-.05,1.79,1.09,2.29.44.19.9.34,1.33.56a1.13,1.13,0,0,1,.58,1.23,1.15,1.15,0,0,1-.85,1,2.57,2.57,0,0,1-2-.24,1.25,1.25,0,0,0-.27-.08l-.22.53a3.37,3.37,0,0,0,2.26.44,1.9,1.9,0,0,0,1.77-1.5,1.76,1.76,0,0,0-1.16-2c-.41-.19-.85-.33-1.27-.51a1,1,0,0,1-.7-1.2,1,1,0,0,1,1-.84,9,9,0,0,1,1.45.26l.21,0Zm93.42.4c0-.13,0-.42-.15-.5a2.11,2.11,0,0,0-2.79.21,1.53,1.53,0,0,0,.24,2.55c.54.32,1.16.5,1.73.78a1.22,1.22,0,0,1-.28,2.26,2.71,2.71,0,0,1-2-.28.76.76,0,0,0-.21-.06l-.2.54a3.39,3.39,0,0,0,2.25.43A1.92,1.92,0,0,0,279,93.14a1.76,1.76,0,0,0-1.2-2.14c-.45-.19-.91-.34-1.34-.55s-.75-.6-.57-1a1.46,1.46,0,0,1,.84-.86A8.1,8.1,0,0,1,278.72,88.65Zm-56.3-.41c-.28-.11-.49-.18-.68-.27a2.23,2.23,0,0,0-2.81,1c-.43,1,0,1.82,1.29,2.32.38.16.79.29,1.15.48A1.22,1.22,0,0,1,221,94a2.72,2.72,0,0,1-2-.29l-.22,0-.24.69a15.46,15.46,0,0,0,2,.28,1.89,1.89,0,0,0,2-1.48,1.85,1.85,0,0,0-1.41-2.21,4.42,4.42,0,0,1-1.19-.52,1.28,1.28,0,0,1-.49-1,1.23,1.23,0,0,1,.73-.86,6.29,6.29,0,0,1,1.71.17l.22,0Zm-20.77,5.67c-.43.06-.63.1-.82.11-.71,0-1.14-.25-1.16-1,0-1.48,0-3,0-4.52h1.95c0-.19,0-.42,0-.43-.64-.07-1.28-.12-2-.18V86c-1.25.35-.29,1.43-.77,2-.27.27-1-.33-1,.55l1.13.07c0,.21,0,.36,0,.51,0,1.32,0,2.64,0,4a1.57,1.57,0,0,0,2.21,1.5C201.35,94.49,201.44,94.22,201.65,93.91Zm49.08.51V84.84h-.65v9.58ZM93,89.16c-.15-1.18-.15-1.18-.65-1v6.35l.7-.06c0-1.24,0-2.42,0-3.61a2.11,2.11,0,0,1,2.16-2.33l0-.76A2.59,2.59,0,0,0,93,89.16ZM161.48,88v6.42l.61,0a1.63,1.63,0,0,0,0-.18c0-1,0-2,0-3a2.77,2.77,0,0,1,.58-2.1,7.83,7.83,0,0,1,1.58-.92l-.05-.57a2.73,2.73,0,0,0-2.17,1.54L162,88Zm158.3,6.39V84.8l-.59,0v9.59Zm-3.51-9.6v9.63l.58-.06V84.83Zm-112.49,9.6V88h-.61v6.39Zm-8-9.2c-.95-.29-1.38.08-2.11,1.86C194.74,86.7,195.12,85.81,195.81,85.23Zm7.76.16h-.26c-.13.23-.37.48-.35.69s.34.36.52.54c.17-.21.45-.41.48-.64S203.71,85.59,203.57,85.39Z" transform="translate(-22 -11)"/><path class="cls-3" d="M219.16,34.86V73.07h-5.73V49l-.17-.05L200.62,73.09H197L184.33,48.92l-.18.06V73.07h-5.69V34.86c1.41,0,2.83,0,4.25,0a1.24,1.24,0,0,1,1.34.8c2.1,4.07,4.25,8.11,6.38,12.16,1.72,3.28,3.45,6.56,5.16,9.85,1,1.91,2,3.83,3,5.74.06.12.13.23.25.42.3-.57.56-1.09.83-1.6l4.53-8.55c1.75-3.3,3.48-6.6,5.22-9.9,1.46-2.78,2.93-5.55,4.36-8.35a.88.88,0,0,1,.95-.56C216.17,34.88,217.64,34.86,219.16,34.86Z" transform="translate(-22 -11)"/><path class="cls-3" d="M296.67,57H282V51.38h20.37A22.73,22.73,0,0,1,302.2,58a19.51,19.51,0,0,1-4.66,9.88,17.82,17.82,0,0,1-7,4.83,18.68,18.68,0,0,1-12.32.49,17.26,17.26,0,0,1-8.13-4.78,27.34,27.34,0,0,1-3.55-4.68,18.33,18.33,0,0,1-2.35-8.5,19.71,19.71,0,0,1,6.61-16.35,17.23,17.23,0,0,1,10.12-4.61c5.4-.61,10.51.36,14.93,3.67a14.28,14.28,0,0,1,5.36,7.43L296,47.19c-.53-.82-1-1.64-1.58-2.42A11.54,11.54,0,0,0,286,40c-3.41-.44-6.67-.12-9.56,1.85A13.71,13.71,0,0,0,270.33,52a14.58,14.58,0,0,0,1.2,8.32A13,13,0,0,0,282.12,68a11.63,11.63,0,0,0,2.33.22c3.75-.36,7.13-1.6,9.51-4.7A12.88,12.88,0,0,0,296.67,57Z" transform="translate(-22 -11)"/><path class="cls-3" d="M345,34.86c1.6,0,3.16,0,4.72,0a.86.86,0,0,1,.56.35c2.11,2.57,4.21,5.16,6.31,7.74l3.78,4.71,4.09,5.06,4.11,5.12,3.49,4.35c.1.13.18.27.28.41l.15-.11V34.9h5.93V73.1c-1.33,0-2.66,0-4,0a1.66,1.66,0,0,1-1.55-.74c-1-1.28-2.09-2.48-3.13-3.73-1.44-1.73-2.86-3.48-4.29-5.22l-3.9-4.79-8.29-10.1c-.67-.82-1.34-1.66-2-2.5a1.13,1.13,0,0,1-.14-.36l-.21.15V73.06H345Z" transform="translate(-22 -11)"/><path class="cls-2" d="M88.66,57.78V73.05H82.81V34.92a1.06,1.06,0,0,1,.28-.06c6,0,12,0,18,0a12.64,12.64,0,0,1,6.59,1.77,10.33,10.33,0,0,1,5.07,7.09,11.83,11.83,0,0,1-1.1,8.23c-1.88,3.39-4.94,4.95-8.61,5.54-.52.09-1,.13-1.68.2a9.48,9.48,0,0,0,.58.84c1,1.1,2,2.19,2.93,3.29l5.28,6,3.9,4.44c.19.23.39.45.67.77a6.26,6.26,0,0,1-.63.08h-6.2a.94.94,0,0,1-.8-.41c-1.14-1.33-2.33-2.62-3.49-3.94q-2.39-2.72-4.76-5.44c-1.37-1.57-2.79-3.09-4.07-4.73a2,2,0,0,0-1.86-.83C91.52,57.82,90.13,57.78,88.66,57.78Zm0-5.52h.7c3.72,0,7.43,0,11.15,0A8.64,8.64,0,0,0,102.6,52a5.81,5.81,0,0,0,3.23-9.39,6.4,6.4,0,0,0-5.21-2.23c-3.78,0-7.56,0-11.34,0l-.61,0Z" transform="translate(-22 -11)"/><path class="cls-2" d="M136.31,74a29.08,29.08,0,0,1-4.58-.79,18.34,18.34,0,0,1-8.19-4.88,25.14,25.14,0,0,1-3-3.83,18.55,18.55,0,0,1-2.71-8.61A21.24,21.24,0,0,1,119.32,46a20.32,20.32,0,0,1,5.13-7.13c3.84-3.57,8.43-4.88,13.5-4.75a17.49,17.49,0,0,1,10.81,3.75A19.58,19.58,0,0,1,156.41,51a19.72,19.72,0,0,1-1.74,11.77A26.35,26.35,0,0,1,152,66.91a18.68,18.68,0,0,1-8.37,5.9A22.4,22.4,0,0,1,136.31,74Zm1.13-5.7c.38-.07,1-.19,1.65-.29a12.68,12.68,0,0,0,8.73-5.15,14.54,14.54,0,0,0,2.8-9.74A14.09,14.09,0,0,0,145.91,43a12.17,12.17,0,0,0-8.6-3.21c-3.66,0-7,1-9.46,3.9a19.91,19.91,0,0,0-2.34,3.07,15,15,0,0,0-1.73,8.29A14,14,0,0,0,127,63.37C129.57,66.6,133.12,68,137.44,68.25Z" transform="translate(-22 -11)"/><path class="cls-3" d="M315.6,67.56h21.7v5.51H309.66V34.9h27.56v5.47H315.61v10.8h20v5.42h-20Z" transform="translate(-22 -11)"/><path class="cls-2" d="M52.09,73.08h-5.9V34.92a2.7,2.7,0,0,1,.41-.06c5.72,0,11.43,0,17.15,0a12.75,12.75,0,0,1,8.57,3,11.42,11.42,0,0,1,3.89,7.5,13.72,13.72,0,0,1-1.3,7.86,11.53,11.53,0,0,1-4.54,4.54,13.6,13.6,0,0,1-7.27,1.8c-3.65,0-7.29,0-11,0Zm0-19c3.86,0,7.63,0,11.41,0a6.91,6.91,0,0,0,3.82-1.12,6.35,6.35,0,0,0,3-4.7,6.8,6.8,0,0,0-2-6,6.92,6.92,0,0,0-4.92-1.84c-3.6,0-7.2,0-10.8,0a5.46,5.46,0,0,0-.57,0Z" transform="translate(-22 -11)"/><path class="cls-3" d="M262.19,73.07h-6.36c-.82-2-1.65-4-2.49-6-.34-.81-.66-1.62-1-2.41a.82.82,0,0,0-.59-.42q-8.62,0-17.27,0a.84.84,0,0,0-.61.41c-1.18,2.81-2.34,5.63-3.51,8.46h-6.43c.32-.73.63-1.4.92-2.08q2.66-6.15,5.3-12.31,2.16-5,4.33-10.09l4.26-10c.46-1.08.94-2.15,1.37-3.24a.72.72,0,0,1,.82-.53c1.49,0,3,0,4.48,0a.81.81,0,0,1,.62.37c1.85,4.24,3.67,8.48,5.5,12.72l4.15,9.67q3.21,7.47,6.41,15C262.1,72.73,262.13,72.88,262.19,73.07ZM236.3,58.63h13.54l-6.77-16.36C240.8,47.77,238.57,53.15,236.3,58.63Z" transform="translate(-22 -11)"/><path class="cls-3" d="M163.69,34.88h5.85V73.06h-5.85Z" transform="translate(-22 -11)"/><path class="cls-1" d="M302,85.47a7.24,7.24,0,0,1,3.4,0,2,2,0,0,1,1.61,1.7,2.12,2.12,0,0,1-1,2.24l-.33.22c1.63.82,2,1.65,1.59,3.21a2.37,2.37,0,0,1-2.06,1.6,7.55,7.55,0,0,1-1.5.14c-.55,0-1.09-.06-1.67-.09Zm.72,8.54a22.72,22.72,0,0,0,2.67-.29A1.67,1.67,0,0,0,306.74,92a1.63,1.63,0,0,0-1.23-1.74,22.2,22.2,0,0,0-2.75-.38Zm0-4.57a18.72,18.72,0,0,0,2.52-.27,1.54,1.54,0,0,0,1.11-1.79A1.39,1.39,0,0,0,305.1,86a11.42,11.42,0,0,0-2-.1c-.11,0-.32.23-.33.36C302.72,87.27,302.73,88.27,302.73,89.44Z" transform="translate(-22 -11)"/><path class="cls-1" d="M147.64,93.46V97l-.67,0V88h.55l.11,1.06c.86-.85,1.78-1.57,3-1.32a3.93,3.93,0,0,1,1.93,1.11,3.76,3.76,0,0,1-.25,4.92A3.28,3.28,0,0,1,147.64,93.46Zm0-2.18a2.44,2.44,0,0,0,4.69,1.26,3.21,3.21,0,0,0-.54-3.48,2.37,2.37,0,0,0-2.7-.41A2.46,2.46,0,0,0,147.63,91.28Z" transform="translate(-22 -11)"/><path class="cls-1" d="M109.07,84.83h.7V94.4h-.55l-.06-1.1a3,3,0,0,1-2.68,1.31,2.85,2.85,0,0,1-2-.87,3.7,3.7,0,0,1,0-4.82c1.38-1.36,2.57-1.78,4.63-.1Zm.18,6.35c-.15-1.51-.54-2.21-1.56-2.6a2.37,2.37,0,0,0-2.7.63,3.13,3.13,0,0,0-.4,3.45,2.32,2.32,0,0,0,4,.5A7.36,7.36,0,0,0,109.25,91.18Z" transform="translate(-22 -11)"/><path class="cls-1" d="M289.57,94.43c-1,.13-.39-.68-.69-1a3.11,3.11,0,0,1-4.56.36,3.68,3.68,0,0,1-.11-4.82c1.32-1.35,2.54-1.86,4.7-.13v-4h.66Zm-.66-3.32c0-1.71-.79-2.65-2.26-2.7a2.53,2.53,0,0,0-2.56,2.67,4.19,4.19,0,0,0,.29,1.52A2.26,2.26,0,0,0,287.22,94C288.39,93.6,288.91,92.72,288.91,91.11Z" transform="translate(-22 -11)"/><path class="cls-1" d="M86.21,90.79V94.4l-.61.06a2.53,2.53,0,0,1-.06-.41c0-2.7,0-5.4,0-8.09,0-.41.1-.62.54-.61.87,0,1.76-.08,2.62,0a2.37,2.37,0,0,1,2.23,2.28,2.5,2.5,0,0,1-1.83,2.78A20.4,20.4,0,0,1,86.21,90.79Zm0-.8a4.49,4.49,0,0,0,3.05-.26,2,2,0,0,0,.93-2.21,1.58,1.58,0,0,0-1.3-1.47,12.16,12.16,0,0,0-2.34-.13c-.11,0-.32.23-.33.36C86.2,87.5,86.21,88.73,86.21,90Z" transform="translate(-22 -11)"/><path class="cls-1" d="M196.92,91.18h-5.09c-.14,2.47,1.83,3.44,4.53,2.49.21.31.32.61-.19.67a10.94,10.94,0,0,1-2.73.15,2.82,2.82,0,0,1-2.36-2.84A3.6,3.6,0,0,1,193,88.06C195.16,86.89,197.37,89.14,196.92,91.18Zm-5.06-.57h4.35a1.94,1.94,0,0,0-1.91-2.2A2.32,2.32,0,0,0,191.86,90.61Z" transform="translate(-22 -11)"/><path class="cls-1" d="M327.35,91.18h-5.08c-.14,2.5,1.87,3.43,4.53,2.49.22.3.32.61-.19.66a10.86,10.86,0,0,1-2.78.14,2.8,2.8,0,0,1-2.31-2.88,3.57,3.57,0,0,1,1.91-3.52C325.6,86.87,327.83,89.18,327.35,91.18Zm-.69-.57a2,2,0,0,0-2.07-2.2,2.21,2.21,0,0,0-2.24,2.2Z" transform="translate(-22 -11)"/><path class="cls-1" d="M297.11,91.19H292c-.12,2.34,1.64,3.46,4.55,2.5.24.3.27.59-.19.64a11.44,11.44,0,0,1-2.79.14,2.74,2.74,0,0,1-2.3-2.81A3.51,3.51,0,0,1,293.24,88C295.43,86.91,297.55,89.18,297.11,91.19Zm-.67-.57a2,2,0,0,0-2.08-2.21,2.28,2.28,0,0,0-2.29,2.21Z" transform="translate(-22 -11)"/><path class="cls-1" d="M314.44,91.17h-5.09c-.11,2.35,1.66,3.49,4.54,2.51.26.33.28.61-.21.66a11.44,11.44,0,0,1-2.73.15,2.82,2.82,0,0,1-2.34-2.86,3.57,3.57,0,0,1,2-3.6C312.7,86.93,314.93,89.18,314.44,91.17Zm-.65-.55c-.14-1.52-.94-2.29-2.21-2.21a2.23,2.23,0,0,0-2.16,2.21Z" transform="translate(-22 -11)"/><path class="cls-1" d="M273.77,91.19h-5.13c-.13,2.53,2,3.42,4.52,2.47.25.3.34.61-.16.67a11,11,0,0,1-2.86.13c-1.39-.23-2.15-1.36-2.25-2.93a3.5,3.5,0,0,1,1.91-3.46,2.51,2.51,0,0,1,2.9.29A3,3,0,0,1,273.77,91.19Zm-5.12-.58h4.43a2,2,0,0,0-2.06-2.2A2.33,2.33,0,0,0,268.65,90.61Z" transform="translate(-22 -11)"/><path class="cls-1" d="M175.31,85.37H180c.17.42,0,.54-.4.54H176v3.46c1.15,0,2.28,0,3.41,0,.42,0,.57.13.41.59H176v4h1.94c.68,0,1.36,0,2,0,.15,0,.3.22.44.34l-.11.16h-5Z" transform="translate(-22 -11)"/><path class="cls-1" d="M255.68,94.6a3.13,3.13,0,0,1-3.26-3.34,3.32,3.32,0,0,1,3.32-3.49,3.22,3.22,0,0,1,3.33,3.3A3.26,3.26,0,0,1,255.68,94.6Zm2.7-3.37a2.64,2.64,0,0,0-2.58-2.82,2.58,2.58,0,0,0-2.69,2.71c0,1.64.85,2.86,2.53,2.93A2.68,2.68,0,0,0,258.38,91.23Z" transform="translate(-22 -11)"/><path class="cls-1" d="M216.22,90.36c-.07-1.9-1.4-2.43-3.54-1.45l-.28-.5a8.44,8.44,0,0,1,1.79-.65,2.37,2.37,0,0,1,2.72,2.39v4.26l-.48,0-.17-.81a3.11,3.11,0,0,1-2.46,1,1.83,1.83,0,0,1-1.75-1.25,1.78,1.78,0,0,1,.79-2.18,13.63,13.63,0,0,1,2.55-.75A5.21,5.21,0,0,1,216.22,90.36Zm.07.47c-1,.21-1.91.32-2.75.58a1.24,1.24,0,0,0-.84,1.35,1.23,1.23,0,0,0,.79,1.18,2.06,2.06,0,0,0,2.65-1.34A14,14,0,0,0,216.29,90.83Z" transform="translate(-22 -11)"/><path class="cls-1" d="M102.47,91.11a3.21,3.21,0,0,1-3.4,3.49,3.14,3.14,0,0,1-3.22-3.38,3.36,3.36,0,0,1,3.36-3.46A3.19,3.19,0,0,1,102.47,91.11Zm-.66.11a2.64,2.64,0,1,0-5.27-.09,2.65,2.65,0,0,0,2.55,2.92A2.68,2.68,0,0,0,101.81,91.22Z" transform="translate(-22 -11)"/><path class="cls-1" d="M247.92,94.42h-.49l-.2-.79a3,3,0,0,1-2.46,1A1.81,1.81,0,0,1,243,93.33a1.79,1.79,0,0,1,.8-2.17,14.4,14.4,0,0,1,2.55-.74,5,5,0,0,1,.77-.06c.15-1.81-1.36-2.44-3.49-1.45l-.28-.5a9.26,9.26,0,0,1,1.79-.65,2.35,2.35,0,0,1,2.71,2.31c0,.94,0,1.89,0,2.83ZM247.25,91a4.93,4.93,0,0,0-2.77.38,1.36,1.36,0,0,0-.78,1.47,1.23,1.23,0,0,0,1,1.12,2.07,2.07,0,0,0,2.51-1.53A9.33,9.33,0,0,0,247.25,91Z" transform="translate(-22 -11)"/><path class="cls-1" d="M136.76,91.1a3.21,3.21,0,0,1-3.39,3.5,3.13,3.13,0,0,1-3.23-3.37,3.34,3.34,0,0,1,3.35-3.46A3.17,3.17,0,0,1,136.76,91.1Zm-.66.09a2.64,2.64,0,1,0-5.27,0,2.65,2.65,0,0,0,2.57,2.89A2.68,2.68,0,0,0,136.1,91.19Z" transform="translate(-22 -11)"/><path class="cls-1" d="M169.26,90.35c0-1.86-1.4-2.42-3.52-1.44l-.28-.5a8.44,8.44,0,0,1,1.79-.65A2.38,2.38,0,0,1,170,90.29v4.12l-.49,0-.16-.81a3.2,3.2,0,0,1-2.39,1,1.87,1.87,0,0,1-.94-3.52,14.06,14.06,0,0,1,2.51-.67A5.63,5.63,0,0,1,169.26,90.35Zm-.06.55a21.28,21.28,0,0,0-2.41.42,1.39,1.39,0,0,0-1,1.81,1.41,1.41,0,0,0,1.81.88C169,93.73,169.48,92.8,169.2,90.9Z" transform="translate(-22 -11)"/><path class="cls-1" d="M158.61,90.36c-.09-1.89-1.43-2.44-3.66-1.4,0-.25,0-.55.07-.59.89-.4,1.71-1,2.8-.43a2.39,2.39,0,0,1,1.46,2.35c0,1.36,0,2.72,0,4.13l-.47,0-.18-.84a3.1,3.1,0,0,1-2.39,1,1.87,1.87,0,0,1-1.82-1.26,1.84,1.84,0,0,1,.89-2.26,14.16,14.16,0,0,1,2.52-.67A4.46,4.46,0,0,1,158.61,90.36Zm.07.46a27.74,27.74,0,0,0-2.85.64A1.28,1.28,0,0,0,155.1,93a1.23,1.23,0,0,0,1,1,2.08,2.08,0,0,0,2.41-1.51A13.27,13.27,0,0,0,158.68,90.82Z" transform="translate(-22 -11)"/><path class="cls-1" d="M339.2,94.42h-.49l-.12-.79-.41.32a2.85,2.85,0,0,1-2.47.6,1.61,1.61,0,0,1-1.38-1.33,1.74,1.74,0,0,1,.8-2,16.41,16.41,0,0,1,2.62-.75,3.25,3.25,0,0,1,.7,0c.23-1.79-1.17-2.38-3.66-1.41.09-.29.09-.57.2-.63a3.1,3.1,0,0,1,2.53-.51,2.47,2.47,0,0,1,1.69,2.59C339.18,91.72,339.2,93,339.2,94.42ZM338.54,91a4.94,4.94,0,0,0-2.81.42,1.34,1.34,0,0,0-.7,1.49A1.2,1.2,0,0,0,336.09,94a2.06,2.06,0,0,0,2.45-1.94C338.55,91.77,338.54,91.44,338.54,91Z" transform="translate(-22 -11)"/><path class="cls-1" d="M236.42,94l.23-.56.25.09a3.77,3.77,0,0,0,2.86.41,1.75,1.75,0,0,0,1.37-1.65,1.62,1.62,0,0,0-.91-1.75c-.56-.29-1.18-.46-1.76-.72-.91-.41-1.72-.89-1.76-2.07a2.21,2.21,0,0,1,1.71-2.4,4.21,4.21,0,0,1,3,.32l-.21.51a.8.8,0,0,1-.22,0,3.3,3.3,0,0,0-2.37-.25,1.66,1.66,0,0,0-.42,3c.52.27,1.09.46,1.63.69.84.35,1.66.73,1.92,1.73a2.42,2.42,0,0,1-1.88,3.16A4.54,4.54,0,0,1,236.42,94Z" transform="translate(-22 -11)"/><path class="cls-1" d="M260.77,88h.54l.08.91A14,14,0,0,1,262.9,88a2.3,2.3,0,0,1,3,1.06,3.57,3.57,0,0,1,.35,1.39c0,1.31,0,2.63,0,4h-.67V92.25c0-.57,0-1.14,0-1.71a1.9,1.9,0,0,0-2-2.08,2.16,2.16,0,0,0-2.17,2.18c0,1.2,0,2.41,0,3.62a.67.67,0,0,1-.06.16l-.61,0Z" transform="translate(-22 -11)"/><path class="cls-1" d="M112.08,88h.6c0,1.06,0,2.1,0,3.15a6.81,6.81,0,0,0,.16,1.43A1.53,1.53,0,0,0,114.36,94a2.2,2.2,0,0,0,2.09-1.1,5.3,5.3,0,0,0,.33-1.52c0-1.09,0-2.19,0-3.34l.64,0v6.4l-.55.06-.07-1.11a3.11,3.11,0,0,1-2.2,1.26,2.11,2.11,0,0,1-2.5-2C112,91.09,112.08,89.58,112.08,88Z" transform="translate(-22 -11)"/><path class="cls-1" d="M226.56,88.08c.49-.19.73,0,.92.42.7,1.65,1.44,3.29,2.15,4.9.54-1.28,1.1-2.6,1.65-3.93a8,8,0,0,0,.4-1c.15-.5.44-.6.93-.42-.4.91-.78,1.81-1.18,2.71-.67,1.5-1.3,3-2,4.49a3.8,3.8,0,0,1-2.4,2.1l-.25-.54A3.62,3.62,0,0,0,229,94.77a1.38,1.38,0,0,0,0-1c-.74-1.78-1.52-3.54-2.29-5.3C226.66,88.37,226.61,88.22,226.56,88.08Z" transform="translate(-22 -11)"/><path class="cls-1" d="M332.67,88.6h-4.15V88h5.18a4.5,4.5,0,0,1-.42.78c-1,1.17-2,2.31-2.93,3.47-.39.47-.73,1-1.2,1.6h1.53c.83,0,1.67,0,2.5,0,.41,0,.51.15.4.54h-5.47a4,4,0,0,1,.39-.75l3.93-4.76C332.49,88.85,332.53,88.78,332.67,88.6Z" transform="translate(-22 -11)"/><path class="cls-1" d="M210.92,94.13c-1.77.88-3.85.58-4.78-.74A3.49,3.49,0,0,1,206.3,89a3.56,3.56,0,0,1,4.68-.67l-.16.4a14.49,14.49,0,0,0-2-.25,2.68,2.68,0,0,0-2.44,3.87c.67,1.51,2.06,2,3.85,1.45C210.74,93.64,210.74,93.64,210.92,94.13Z" transform="translate(-22 -11)"/><path class="cls-1" d="M190.24,93.9c-.19.31-.26.58-.4.63a1.57,1.57,0,0,1-2.24-1.39c-.09-1.22,0-2.45-.07-3.68v-.88l-1.08-.06c0-.48,0-.48,1.08-.54a9.77,9.77,0,0,0,0-1.21c-.05-.52.18-.71.71-.71v1.85c.69.09,1.34.17,2,.27,0,0,0,.19,0,.35h-2v2.8c0,.51,0,1,0,1.52,0,.92.44,1.26,1.35,1.15C189.74,94,189.87,94,190.24,93.9Z" transform="translate(-22 -11)"/><path class="cls-1" d="M126.6,88.55a4.48,4.48,0,0,1-.75,0c-.14,0-.26-.19-.4-.28.13-.09.24-.22.38-.24a3.49,3.49,0,0,1,.64,0c.46-.63-.44-1.68.84-2v2c.57,0,1.07,0,1.56,0,.15,0,.29.16.43.25-.14.09-.27.26-.42.26-.48,0-1,0-1.56,0v3.89c0,1.44.3,1.7,1.75,1.51.25.35.16.53-.26.62a1.59,1.59,0,0,1-2.16-1.6c-.07-1.19,0-2.37-.05-3.56Z" transform="translate(-22 -11)"/><path class="cls-1" d="M124.63,88.33l-.2.47-.21,0a8.71,8.71,0,0,0-1.73-.3,2.67,2.67,0,0,0-2.44,3.87c.65,1.5,2.07,2.05,3.84,1.44.36-.12.63-.21.68.31a3.91,3.91,0,0,1-4.66-.54,3.56,3.56,0,0,1,4.72-5.23Z" transform="translate(-22 -11)"/><path class="cls-1" d="M141.8,88.3l-.24.48-.21,0a8.17,8.17,0,0,0-1.52-.25,1,1,0,0,0-1,.91,1,1,0,0,0,.67,1.09c.42.19.86.34,1.28.52A1.75,1.75,0,0,1,142,93.09a1.88,1.88,0,0,1-1.78,1.49,3.26,3.26,0,0,1-2.24-.45l.21-.47a11,11,0,0,0,1.56.38,1.33,1.33,0,0,0,1.61-1.31,1.23,1.23,0,0,0-.84-1.15c-.46-.21-1-.35-1.39-.58a1.48,1.48,0,0,1-.94-1.45,1.79,1.79,0,0,1,1-1.5A2.21,2.21,0,0,1,141.8,88.3Z" transform="translate(-22 -11)"/><path class="cls-1" d="M185.3,88.25l-.24.51-.21,0a9,9,0,0,0-1.45-.26,1,1,0,0,0-1,.84,1,1,0,0,0,.7,1.2c.42.18.86.32,1.27.51a1.76,1.76,0,0,1,1.16,2,1.9,1.9,0,0,1-1.77,1.5,3.37,3.37,0,0,1-2.26-.44l.22-.53a1.25,1.25,0,0,1,.27.08,2.57,2.57,0,0,0,2,.24,1.15,1.15,0,0,0,.85-1,1.13,1.13,0,0,0-.58-1.23c-.43-.22-.89-.37-1.33-.56-1.14-.5-1.55-1.35-1.09-2.29a2.14,2.14,0,0,1,2.71-.93A7.74,7.74,0,0,0,185.3,88.25Z" transform="translate(-22 -11)"/><path class="cls-1" d="M278.72,88.65a8.1,8.1,0,0,0-2-.11,1.46,1.46,0,0,0-.84.86c-.18.45.15.84.57,1s.89.36,1.34.55a1.76,1.76,0,0,1,1.2,2.14,1.92,1.92,0,0,1-1.75,1.44,3.39,3.39,0,0,1-2.25-.43l.2-.54a.76.76,0,0,1,.21.06,2.71,2.71,0,0,0,2,.28,1.22,1.22,0,0,0,.28-2.26c-.57-.28-1.19-.46-1.73-.78a1.53,1.53,0,0,1-.24-2.55,2.11,2.11,0,0,1,2.79-.21C278.7,88.23,278.68,88.52,278.72,88.65Z" transform="translate(-22 -11)"/><path class="cls-1" d="M222.42,88.24l-.25.54-.22,0a6.29,6.29,0,0,0-1.71-.17,1.23,1.23,0,0,0-.73.86,1.28,1.28,0,0,0,.49,1,4.42,4.42,0,0,0,1.19.52,1.85,1.85,0,0,1,1.41,2.21,1.89,1.89,0,0,1-2,1.48,15.46,15.46,0,0,1-2-.28l.24-.69.22,0a2.72,2.72,0,0,0,2,.29,1.22,1.22,0,0,0,.33-2.23c-.36-.19-.77-.32-1.15-.48-1.24-.5-1.72-1.36-1.29-2.32a2.23,2.23,0,0,1,2.81-1C221.93,88.06,222.14,88.13,222.42,88.24Z" transform="translate(-22 -11)"/><path class="cls-1" d="M201.65,93.91c-.21.31-.3.58-.45.63A1.57,1.57,0,0,1,199,93c-.06-1.31,0-2.63,0-4,0-.15,0-.3,0-.51l-1.13-.07c0-.88.77-.28,1-.55.48-.53-.48-1.61.77-2v1.94c.7.06,1.34.11,2,.18,0,0,0,.24,0,.43h-1.95c0,1.55,0,3,0,4.52,0,.7.45,1,1.16,1C201,94,201.22,94,201.65,93.91Z" transform="translate(-22 -11)"/><path class="cls-1" d="M250.73,94.42h-.65V84.84h.65Z" transform="translate(-22 -11)"/><path class="cls-1" d="M93,89.16a2.59,2.59,0,0,1,2.16-1.46l0,.76a2.11,2.11,0,0,0-2.16,2.33c0,1.19,0,2.37,0,3.61l-.7.06V88.11C92.87,88,92.87,88,93,89.16Z" transform="translate(-22 -11)"/><path class="cls-1" d="M161.48,88H162l.07,1.18a2.73,2.73,0,0,1,2.17-1.54l.05.57a7.83,7.83,0,0,0-1.58.92,2.77,2.77,0,0,0-.58,2.1c0,1,0,2,0,3a1.63,1.63,0,0,1,0,.18l-.61,0Z" transform="translate(-22 -11)"/><path class="cls-1" d="M319.78,94.43h-.59V84.84l.59,0Z" transform="translate(-22 -11)"/><path class="cls-1" d="M316.27,84.83h.58V94.4l-.58.06Z" transform="translate(-22 -11)"/><path class="cls-1" d="M203.78,94.43h-.61V88h.61Z" transform="translate(-22 -11)"/><path class="cls-1" d="M195.81,85.23c-.69.58-1.07,1.47-2.11,1.86C194.43,85.31,194.86,84.94,195.81,85.23Z" transform="translate(-22 -11)"/><path class="cls-1" d="M203.57,85.39c.14.2.42.42.39.6s-.31.43-.48.64c-.18-.18-.5-.34-.52-.54s.22-.46.35-.69Z" transform="translate(-22 -11)"/><path class="cls-1" d="M88.67,52.26V40.41l.61,0c3.78,0,7.56,0,11.34,0a6.4,6.4,0,0,1,5.21,2.23A5.81,5.81,0,0,1,102.6,52a8.64,8.64,0,0,1-2.08.25c-3.72,0-7.43,0-11.15,0Z" transform="translate(-22 -11)"/><path class="cls-1" d="M137.44,68.25c-4.32-.29-7.87-1.65-10.49-4.88a14,14,0,0,1-3.17-8.31,15,15,0,0,1,1.73-8.29,19.91,19.91,0,0,1,2.34-3.07c2.5-2.86,5.8-3.91,9.46-3.9a12.17,12.17,0,0,1,8.6,3.21,14.09,14.09,0,0,1,4.71,10.06,14.54,14.54,0,0,1-2.8,9.74A12.68,12.68,0,0,1,139.09,68C138.45,68.06,137.82,68.18,137.44,68.25Z" transform="translate(-22 -11)"/><path class="cls-1" d="M52.1,54.09V40.43a5.46,5.46,0,0,1,.57,0c3.6,0,7.2,0,10.8,0a6.92,6.92,0,0,1,4.92,1.84,6.8,6.8,0,0,1,2,6,6.35,6.35,0,0,1-3,4.7,6.91,6.91,0,0,1-3.82,1.12C59.73,54.13,56,54.09,52.1,54.09Z" transform="translate(-22 -11)"/><path class="cls-1" d="M236.3,58.63c2.27-5.48,4.5-10.86,6.77-16.36l6.77,16.36Z" transform="translate(-22 -11)"/><path class="cls-2" d="M302.76,94V89.85a22.2,22.2,0,0,1,2.75.38A1.63,1.63,0,0,1,306.74,92a1.67,1.67,0,0,1-1.31,1.75A22.72,22.72,0,0,1,302.76,94Z" transform="translate(-22 -11)"/><path class="cls-2" d="M302.73,89.44c0-1.17,0-2.17,0-3.18,0-.13.22-.36.33-.36a11.42,11.42,0,0,1,2,.1,1.39,1.39,0,0,1,1.26,1.38,1.54,1.54,0,0,1-1.11,1.79A18.72,18.72,0,0,1,302.73,89.44Z" transform="translate(-22 -11)"/><path class="cls-2" d="M147.63,91.29a2.46,2.46,0,0,1,1.45-2.64,2.37,2.37,0,0,1,2.7.41,3.21,3.21,0,0,1,.54,3.48,2.49,2.49,0,0,1-3.73,1.06A2.46,2.46,0,0,1,147.63,91.29Z" transform="translate(-22 -11)"/><path class="cls-2" d="M109.25,91.18a7.36,7.36,0,0,1-.69,2,2.32,2.32,0,0,1-4-.5,3.13,3.13,0,0,1,.4-3.45,2.37,2.37,0,0,1,2.7-.63C108.71,89,109.1,89.67,109.25,91.18Z" transform="translate(-22 -11)"/><path class="cls-2" d="M288.91,91.11c0,1.61-.52,2.49-1.69,2.84a2.26,2.26,0,0,1-2.84-1.35,4.19,4.19,0,0,1-.29-1.52,2.53,2.53,0,0,1,2.56-2.67C288.12,88.46,288.91,89.4,288.91,91.11Z" transform="translate(-22 -11)"/><path class="cls-2" d="M86.21,90c0-1.26,0-2.49,0-3.71,0-.13.22-.37.33-.36a12.16,12.16,0,0,1,2.34.13,1.58,1.58,0,0,1,1.3,1.47,2,2,0,0,1-.93,2.21A4.49,4.49,0,0,1,86.21,90Z" transform="translate(-22 -11)"/><path class="cls-2" d="M191.86,90.61a2.32,2.32,0,0,1,2.44-2.2,1.94,1.94,0,0,1,1.91,2.2Z" transform="translate(-22 -11)"/><path class="cls-2" d="M326.66,90.61h-4.31a2.21,2.21,0,0,1,2.24-2.2A2,2,0,0,1,326.66,90.61Z" transform="translate(-22 -11)"/><path class="cls-2" d="M296.44,90.62h-4.37a2.28,2.28,0,0,1,2.29-2.21A2,2,0,0,1,296.44,90.62Z" transform="translate(-22 -11)"/><path class="cls-2" d="M313.79,90.62h-4.37a2.23,2.23,0,0,1,2.16-2.21C312.85,88.33,313.65,89.1,313.79,90.62Z" transform="translate(-22 -11)"/><path class="cls-2" d="M268.65,90.61a2.33,2.33,0,0,1,2.37-2.2,2,2,0,0,1,2.06,2.2Z" transform="translate(-22 -11)"/><path class="cls-2" d="M258.38,91.23a2.68,2.68,0,0,1-2.74,2.82c-1.68-.07-2.52-1.29-2.53-2.93a2.58,2.58,0,0,1,2.69-2.71A2.64,2.64,0,0,1,258.38,91.23Z" transform="translate(-22 -11)"/><path class="cls-2" d="M216.29,90.83a14,14,0,0,1-.15,1.77,2.06,2.06,0,0,1-2.65,1.34,1.23,1.23,0,0,1-.79-1.18,1.24,1.24,0,0,1,.84-1.35C214.38,91.15,215.26,91,216.29,90.83Z" transform="translate(-22 -11)"/><path class="cls-2" d="M101.81,91.22a2.68,2.68,0,0,1-2.72,2.83,2.65,2.65,0,0,1-2.55-2.92,2.64,2.64,0,1,1,5.27.09Z" transform="translate(-22 -11)"/><path class="cls-2" d="M247.25,91a9.33,9.33,0,0,1-.08,1.44A2.07,2.07,0,0,1,244.66,94a1.23,1.23,0,0,1-1-1.12,1.36,1.36,0,0,1,.78-1.47A4.93,4.93,0,0,1,247.25,91Z" transform="translate(-22 -11)"/><path class="cls-2" d="M136.1,91.19a2.68,2.68,0,0,1-2.7,2.86,2.65,2.65,0,0,1-2.57-2.89,2.64,2.64,0,1,1,5.27,0Z" transform="translate(-22 -11)"/><path class="cls-2" d="M169.2,90.9c.28,1.9-.24,2.83-1.58,3.11a1.41,1.41,0,0,1-1.81-.88,1.39,1.39,0,0,1,1-1.81A21.28,21.28,0,0,1,169.2,90.9Z" transform="translate(-22 -11)"/><path class="cls-2" d="M158.68,90.82a13.27,13.27,0,0,1-.13,1.7A2.08,2.08,0,0,1,156.14,94a1.23,1.23,0,0,1-1-1,1.28,1.28,0,0,1,.73-1.53A27.74,27.74,0,0,1,158.68,90.82Z" transform="translate(-22 -11)"/><path class="cls-2" d="M338.54,91c0,.41,0,.74,0,1.06A2.06,2.06,0,0,1,336.09,94,1.2,1.2,0,0,1,335,92.94a1.34,1.34,0,0,1,.7-1.49A4.94,4.94,0,0,1,338.54,91Z" transform="translate(-22 -11)"/></svg>